<svg xmlns="http://www.w3.org/2000/svg" xmlns:xlink="http://www.w3.org/1999/xlink" version="1.1" x="0px" y="0px" viewBox="0 0 100 125" style="enable-background:new 0 0 100 100;" xml:space="preserve"><path d="M91.8,28.6H7.5C6.1,28.6,5,27.5,5,26s1.2-2.6,2.6-2.6h84.3c1.4,0,2.6,1.2,2.6,2.6S93.3,28.6,91.8,28.6z"/><path d="M91.8,51.3H7.5c-1.4,0-2.6-1.2-2.6-2.6s1.2-2.6,2.6-2.6h84.3c1.4,0,2.6,1.2,2.6,2.6S93.3,51.3,91.8,51.3z"/><path d="M91.8,73.9H7.5c-1.4,0-2.6-1.2-2.6-2.6c0-1.4,1.2-2.6,2.6-2.6h84.3c1.4,0,2.6,1.2,2.6,2.6C94.4,72.8,93.3,73.9,91.8,73.9z"/><text x="0" y="115" fill="#000000" font-size="5px" font-weight="bold" font-family="'Helvetica Neue', Helvetica, Arial-Unicode, Arial, Sans-serif">Created by Morten Halvorsen</text><text x="0" y="120" fill="#000000" font-size="5px" font-weight="bold" font-family="'Helvetica Neue', Helvetica, Arial-Unicode, Arial, Sans-serif">from the Noun Project</text></svg>