<?xml version="1.0" encoding="utf-8"?>
<!-- Generator: Adobe Illustrator 25.1.0, SVG Export Plug-In . SVG Version: 6.00 Build 0)  -->
<svg version="1.1" id="Livello_1" xmlns="http://www.w3.org/2000/svg" xmlns:xlink="http://www.w3.org/1999/xlink" x="0px" y="0px"
	 viewBox="0 0 100 125" style="enable-background:new 0 0 100 125;" xml:space="preserve">
<g>
	<path d="M92.1,42.5H7.8c-1.4,0-2.5-1.1-2.5-2.6s1.2-2.6,2.6-2.6h84.3c1.4,0,2.6,1.2,2.6,2.6C94.8,41.3,93.6,42.5,92.1,42.5z"/>
	<path d="M92.1,65.2H7.8c-1.4,0-2.6-1.2-2.6-2.6S6.4,60,7.8,60h84.3c1.4,0,2.6,1.2,2.6,2.6S93.6,65.2,92.1,65.2z"/>
	<path d="M92.1,87.8H7.8c-1.4,0-2.6-1.2-2.6-2.6s1.2-2.6,2.6-2.6h84.3c1.4,0,2.6,1.2,2.6,2.6C94.7,86.7,93.6,87.8,92.1,87.8z"/>
</g>
</svg>
